<svg xmlns="http://www.w3.org/2000/svg" width="512" height="512"><path fill="#f6f8f2" d="M0 0h512v512H0V0Z"/><path fill="#587fc3" d="M192 16c4.685 1.562 6.825 5.288 10 9 2.556 2.652 5.119 5.297 7.688 7.938 8.855 9.26 17.216 19.354 22.613 31.046 5.85 6.351 12.06 4.801 20.262 4.266 2.979-.163 5.96-.305 8.94-.422l3.995-.253c5.622.682 7.754 3.773 10.002 8.737L277 79h5c2.28 1.089 4.553 2.192 6.79 3.367 4.035 2.052 8.14 3.907 12.272 5.758l4.473 2.008C309.97 91.987 314.43 93.52 319 95c5.09 2.096 8.33 4.894 12 9v2c2.252-1.1 4.502-2.205 6.75-3.313l3.797-1.863c3.67-1.823 3.67-1.823 7.453-4.824 9.017 3.006 15.076 22.97 18.938 31.059 5.343 11.042 11.51 21.434 19.343 30.91 3.773 6.982 3.28 12.802 3.094 20.594.032 12.601 1.086 21.924 8.625 32.437l2.938 4.563c3.638 4.084 7.727 7.111 12.062 10.437 13.515 13.515 13.444 31.22 9.188 49-1.286 4.65-2.94 8.735-5.188 13-2.063 4.501-3.744 9.08-5.375 13.75-2.213 6.25-4.776 12.266-7.625 18.25-1.253 2.644-2.503 5.29-3.75 7.938l-1.797 3.777c-1.586 3.333-1.586 3.333-2.453 7.285 13.66.46 19.623-2.623 29.438-12.438 4.112-2.507 6.832-2.238 11.562-1.562 8.144 4.845 23 14.051 23 24-5 3-5 3-8.375 3.938-3.99 1.169-7.035 2.983-10.625 5.062-6.95 3.226-13.112 3.47-20.625 3.563-13.823.217-19.293 1.692-27.375 12.937-7.537 10.476-13.858 14.434-27 15.5-3.234 3.234-1.866 5.61-1 10 2.415 8.02 5.28 15.038 10 22l2.25 4.375c2.28 3.835 4.298 6.438 7.313 9.625 6.595 7.187 8.478 13.347 9.312 23 .497 5.59.864 9.585 4.25 14.125 3.291 4.436 3.713 6.477 2.875 11.875-3.705 3.705-4.917 3.789-10 3-4.285-4.285-6.23-8.529-8.25-14.188-5.89-15.652-13.269-30.146-21.877-44.453-5.05-8.43-8.942-16.52-11.123-26.171l-1.016-4.395C349 395 349 395 349 391c-9.327-.512-9.327-.512-16.688 4.063L331 399l-1.688 3.813c-1.492 4.216-1.492 4.216-1.687 8.937-1.447 12.153-6.276 19.896-16.75 26.188l-3.469 2.09a259.274 259.274 0 0 1-9.031 4.972c-5.025 2.67-9.468 5.886-13.965 9.363C282 456 282 456 278 457c-13.2-29.41-13.2-29.41-13.313-46.75l-.087-4.348c-.08-13.563.99-28.299 12.462-37.152l2.66-2.078C282 365 282 365 284 364v-5c-10.108 2.527-18.873 6.719-27.54 12.418-6.654 4.278-12.742 6.253-20.46 3.52-7.178-4.636-11.59-9.71-16-16.938-4.76-2.38-6.735-2.827-12-2-3.7 2.646-6.833 5.746-10 9l-5 5-2.688 2.813c-5.324 3.516-10.215 3.614-16.05.925-8.144-4.941-15.292-11.244-21.45-18.488-4.605-5.322-8.92-8.086-15.625-10-12.018-3.832-17.575-12.845-23.792-23.293-3.167-5.233-6.757-10.043-10.395-14.957-3.899-6.498-4.17-10.705-3.676-18.129C100.47 267.077 100.47 267.077 87 251c-14.402-18.23-22.636-37.698-14.352-60.168 1.346-3.816 2.316-7.58 3.227-11.52 2.998-12.392 7.326-24.39 12.438-36.062 3.13-7.162 4.67-13.378 5.062-21.188C94.31 106.97 102.465 98.252 115 91l5-2a815.636 815.636 0 0 0 3-8c10.677-17.108 27.53-28.586 43.363-40.54C181.055 29.985 181.055 29.985 192 16Z"/><path fill="#2e4976" d="m100 268 4 1-2 1 .91 2.598c2.089 6.28 3.58 10.817 2.09 17.402-.216 5.89-.206 9.485 2 15 5.831.89 5.831.89 11-1 .047-2.666.038-5.334 0-8-.111-7.889-.111-7.889 1-9 6.401-.3 11.781.613 18 2 3.35.485 6.705.942 10.063 1.375 8.054 1.108 15.765 2.659 23.59 4.855 3.75.994 3.75.994 9.347.77 2.273 2.379 2.273 2.379 4.375 5.563 11.124 15.751 30.216 24.896 49.625 24.43 1.128-.02 2.255-.038 3.417-.057l3.583-.061c8.647-.087 16.419.239 24.82 2.45 19.82 4.212 45.683-1.828 60.18-16.325h2l2-4c.77-1.325 1.54-2.65 2.332-4.016 2.92-5.456 5.167-10.956 7.356-16.734l1.181-3.074c1.047-2.724 2.09-5.45 3.131-8.176l2-5c11.815 2.363 24.515 13.515 33 22-.56 10.08-3.426 19.091-8 28l-4.25 9.313C357.595 349.592 346.466 359.56 326 366l8 4 1-3c4.444.296 8.632 1.126 13 2v2c7.645 1.04 7.645 1.04 15-1l3.563-1.063c5.611-3.162 6.493-8.29 8.578-14.136C379.976 341.625 386.867 334.28 399 327h2l-4 12c13.66.46 19.623-2.623 29.438-12.438 4.112-2.507 6.832-2.238 11.562-1.562 8.144 4.845 23 14.051 23 24-5 3-5 3-8.375 3.938-3.99 1.169-7.035 2.983-10.625 5.062-6.95 3.226-13.112 3.47-20.625 3.563-13.823.217-19.293 1.692-27.375 12.937-7.537 10.476-13.858 14.434-27 15.5-3.234 3.234-1.866 5.61-1 10 2.415 8.02 5.28 15.038 10 22l2.25 4.375c2.28 3.835 4.298 6.438 7.313 9.625 6.595 7.187 8.478 13.347 9.312 23 .497 5.59.864 9.585 4.25 14.125 3.291 4.436 3.713 6.477 2.875 11.875-3.705 3.705-4.917 3.789-10 3-4.285-4.285-6.23-8.529-8.25-14.188-5.89-15.652-13.269-30.146-21.877-44.453-5.05-8.43-8.942-16.52-11.123-26.171l-1.016-4.395C349 395 349 395 349 391c-9.327-.512-9.327-.512-16.688 4.063L331 399l-1.688 3.813c-1.492 4.216-1.492 4.216-1.687 8.937-1.447 12.153-6.276 19.896-16.75 26.188l-3.469 2.09a259.274 259.274 0 0 1-9.031 4.972c-5.025 2.67-9.468 5.886-13.965 9.363C282 456 282 456 278 457c-13.2-29.41-13.2-29.41-13.313-46.75l-.087-4.348c-.08-13.563.99-28.299 12.462-37.152l2.66-2.078C282 365 282 365 284 364v-5c-10.108 2.527-18.873 6.719-27.54 12.418-6.654 4.278-12.742 6.253-20.46 3.52-7.178-4.636-11.59-9.71-16-16.938-4.76-2.38-6.735-2.827-12-2-3.7 2.646-6.833 5.746-10 9l-5 5-2.688 2.813c-5.324 3.516-10.215 3.614-16.05.925-8.144-4.941-15.292-11.244-21.45-18.488-4.605-5.322-8.92-8.086-15.625-10-12.018-3.832-17.575-12.845-23.792-23.293-3.167-5.233-6.757-10.043-10.395-14.957-3.626-6.043-4.125-10.298-4.133-17.203l-.004-3.469.012-3.578-.012-3.625c.01-8.872.01-8.872 1.137-11.125Z"/><path fill="#2d62bf" d="m242 147 4.125 1.125c10.638 4.092 19.593 7.938 26.875 16.875 2.928 1.696 5.92 3.113 8.992 4.531C285 171 285 171 289.437 174.062c3.863 2.487 6.803 3.837 11.063 5.313 16.078 5.917 20.249 18.812 24.484 34.16.657 3.266.657 3.266 2.016 4.465 1.108 22.388-1.744 38.844-20.926 52.121-4.836 3.418-9.015 7.27-13.304 11.336-2.717 2.494-5.53 4.74-8.457 6.98-4.617 3.096-4.617 3.096-5.313 7.563 12.112-7.171 21.638-16.178 30.941-26.688 1.626-1.826 3.33-3.583 5.059-5.312l1 2-2 3 5-1c-1.821 3.642-3.392 5.702-6.125 8.625a123.352 123.352 0 0 0-8.75 10.563c-4.265 5.388-9.142 8.547-15.125 11.812l-4.938 2.938c-12.453 5.403-29.79 3.759-40.949-3.926-2.823-2.23-5.473-4.568-8.113-7.012l-4.188-3.688c-4.188-4.737-6.871-9.596-9.882-15.12-2.404-3.975-5.299-6.325-8.93-9.192-20.576-22.886-20.364-44.847-15-74l-2.375 2.5C192 194 192 194 190 194c-5.404 15.173-4.99 33.114 1 48l1.578 4.582c3.313 9.514 7.087 17.883 12.422 26.418 2.346 7.039 2.328 14.023-1.813 20.188-5.018 4.428-7.457 5.433-14.187 4.812-6.618-6.618-10.58-13.996-14.875-22.25-5.74-11.008-11.308-21.224-19.844-30.3C127 216.16 127 216.16 127 206l-4-2c-7.734-12.128-6.314-23.464 0-36 3.995-7.004 8.19-13.46 15-18 6 0 6 0 8 2 1.948 5.695 3 9.938 3 16 4.392.923 4.392.923 9 1l2-5c10.228-11 10.228-11 14-11-6 12-6 12-7.621 15.137-9.959 19.467-11.704 36.211-.629 55.988 5.422 7.1 5.422 7.1 13.25 9.875a389.445 389.445 0 0 0-1.754-9.988l-.809-4.325-.816-4.3c-2.318-16.374.74-34.317 7.379-49.387l1.223-2.895c4.45-9.771 9.738-12.465 19.656-15.21 12.686-3.636 25.07-4.489 38.121-.895Z"/><path fill="#587fc3" d="M235 68c5.562-.145 11.124-.234 16.688-.313l4.787-.126 4.6-.05c1.397-.025 2.796-.052 4.236-.079 5.71.88 7.878 3.777 10.189 8.88L277 79h5c2.28 1.089 4.553 2.192 6.79 3.367 4.035 2.052 8.14 3.907 12.272 5.758l4.473 2.008C309.97 91.987 314.43 93.52 319 95c5.09 2.096 8.33 4.894 12 9v2l2 1-1 3c-5.086-1.017-8.877-2.683-13.563-4.875-21.83-9.777-38.075-7.246-60.413-.938-2.716.73-5.467 1.331-8.22 1.915-3.802.546-3.802.546-5.804 2.898v1l-5.875.938c-4.2.6-4.2.6-8.125 2.062l5 1v1l-2.746.113c-12.182.658-19.851 3.077-29.36 10.828-2.954 2.102-5.48 2.935-8.894 4.059l-4.125 3.688c-5.237 4.476-6.255 2.86-12.5.75-10.304-2.756-15.977-2.23-24.375 4.562-3.417 3.603-5.781 6.563-8 11l-3.188.375c-11.189 1.834-17.34 15.54-21.312 25.125-2.978 10.92-2.515 18.849 3.5 28.5l3 2a610.429 610.429 0 0 1 3 7c7.17 11.13 15.559 21.377 24.625 31 4.914 5.323 8.779 10.727 12.375 17l2.18 3.79a789.26 789.26 0 0 1 12.215 22.343c3.877 7.575 3.877 7.575 11.292 10.305 6.47-.657 9.791-4.155 13.313-9.438.394-2.324.735-4.658 1-7 3.698 0 4.9 4.487 6.625 7.375C219.437 297.833 224.734 305.63 234 312v3l5 1 1 2-3.5-1.063c-4.731-.985-7.754-.635-12.5.063-16.766.53-30.887-3.794-41-18l1-3-3.734-.77c-10.993-2.285-21.873-4.798-32.723-7.68l-3.034-.8c-2.943-.779-5.884-1.563-8.825-2.348-3.941-.972-7.741-1.793-11.727-2.468-8.884-1.674-10.864-7.473-15.012-14.817-2.48-3.974-5.419-7.22-8.617-10.625-14.086-15.078-29.434-35.277-23.316-57.101C78.28 195.9 79.627 192.45 81 189a145.395 145.395 0 0 0 4.375-16.813c1.884-9.034 5.09-17.153 9.25-25.375 5.211-10.56 5.75-19.963 5.871-31.57C101.5 104.802 106.55 99.634 115 94h3v-2c2.713-1.026 5.43-2.043 8.172-2.992C131.175 87.225 135.448 84.73 140 82c10.756-3.339 22.086-3.852 33.25-4.625 3.318-.239 6.636-.48 9.953-.727 1.45-.1 2.901-.202 4.396-.307 3.262-.123 3.262-.123 5.401-1.341 2.031-.269 4.07-.488 6.11-.684l3.726-.373c2.593-.252 5.187-.502 7.781-.75l3.742-.377 3.421-.33c3.259-.492 6.103-1.443 9.22-2.486 2.666-.076 5.335-.092 8 0v-2Z"/><path fill="#2e4976" d="m100 268 4 1-2 1 .91 2.598c2.089 6.28 3.58 10.817 2.09 17.402-.216 5.89-.206 9.485 2 15 5.831.89 5.831.89 11-1 .047-2.666.038-5.334 0-8-.111-7.889-.111-7.889 1-9 6.401-.3 11.781.613 18 2 3.35.485 6.705.942 10.063 1.375 8.054 1.108 15.765 2.659 23.59 4.855 3.75.994 3.75.994 9.347.77 2.273 2.379 2.273 2.379 4.375 5.563 11.124 15.751 30.216 24.896 49.625 24.43 1.128-.02 2.255-.038 3.417-.057l3.583-.061c8.647-.087 16.419.239 24.82 2.45 19.82 4.212 45.683-1.828 60.18-16.325h2l1-2 3.063 4.875a290.872 290.872 0 0 0 7.812 11.688c3.674 5.217 4.672 7.096 4.125 13.437-4.328 4.328-8.666 6.484-14.125 9-.9.425-1.8.85-2.727 1.29-13.56 6.35-28.036 12.242-43.336 10.147-5.709-.519-7.948.692-12.812 3.563l-3.938 1.375c-4.848 1.94-8.743 4.705-13.062 7.625-6.094 3.208-11.362 4.288-18 1.938-7.178-4.636-11.59-9.71-16-16.938-4.76-2.38-6.735-2.827-12-2-3.7 2.646-6.833 5.746-10 9l-5 5-2.688 2.813c-5.324 3.516-10.215 3.614-16.05.925-8.144-4.941-15.292-11.244-21.45-18.488-4.605-5.322-8.92-8.086-15.625-10-12.018-3.832-17.575-12.845-23.792-23.293-3.167-5.233-6.757-10.043-10.395-14.957-3.626-6.043-4.125-10.298-4.133-17.203l-.004-3.469.012-3.578-.012-3.625c.01-8.872.01-8.872 1.137-11.125Z"/><path fill="#819ecf" d="M235 68c5.562-.145 11.124-.234 16.688-.313l4.787-.126 4.6-.05c1.397-.025 2.796-.052 4.236-.079C272.641 68.56 275.396 74.542 278 81l-2 3c-3.917-3.515-4.924-4.62-6-10l-3.043 1.805c-6.603 2.924-13.188 4.053-20.27 5.32l-4.091.762c-2.658.493-5.317.977-7.978 1.451-3.019.552-6.024 1.176-9.024 1.818-9.071 1.369-18.182 1.203-27.342 1.235-10.783.171-17.424 1.676-25.502 9.109-7.34 6.277-15.479 10.951-23.81 15.79a2225.64 2225.64 0 0 0-16.502 9.71l-3.3 1.925-3.08 1.825-2.74 1.61c-9.833 6.959-10.761 23.48-12.755 34.515C107.915 175.42 103.948 188.898 97 202c-2.998 11.99-1.112 21.642 7 31a170.25 170.25 0 0 0 6.438 5.188l3.761 2.898L118 244l3.457 2.727c7.78 6.11 15.681 11.088 24.293 15.96 5.502 3.295 10.379 7.286 15.371 11.297 5.585 4.343 11.415 8.31 17.262 12.29 3.207 2.417 5.284 4.512 7.617 7.726 3.942 3.942 5.562 3.72 11 3 6.543-4.749 9.098-8.035 10-16 3.698 0 4.9 4.487 6.625 7.375C219.437 297.833 224.734 305.63 234 312v3l5 1 1 2-3.5-1.063c-4.731-.985-7.754-.635-12.5.063-16.766.53-30.887-3.794-41-18l1-3-3.734-.77c-10.993-2.285-21.873-4.798-32.723-7.68l-3.034-.8c-2.943-.779-5.884-1.563-8.825-2.348-3.941-.972-7.741-1.793-11.727-2.468-8.884-1.674-10.864-7.473-15.012-14.817-2.48-3.974-5.419-7.22-8.617-10.625-14.086-15.078-29.434-35.277-23.316-57.101C78.28 195.9 79.627 192.45 81 189a145.395 145.395 0 0 0 4.375-16.813c1.884-9.034 5.09-17.153 9.25-25.375 5.211-10.56 5.75-19.963 5.871-31.57C101.5 104.802 106.55 99.634 115 94h3v-2c2.713-1.026 5.43-2.043 8.172-2.992C131.175 87.225 135.448 84.73 140 82c10.756-3.339 22.086-3.852 33.25-4.625 3.318-.239 6.636-.48 9.953-.727 1.45-.1 2.901-.202 4.396-.307 3.262-.123 3.262-.123 5.401-1.341 2.031-.269 4.07-.488 6.11-.684l3.726-.373c2.593-.252 5.187-.502 7.781-.75l3.742-.377 3.421-.33c3.259-.492 6.103-1.443 9.22-2.486 2.666-.076 5.335-.092 8 0v-2Z"/><path fill="#193256" d="M401 217c13.141 6.57 23.005 17.213 24.531 32.227-.08 13.804-1.014 26.406-7.531 38.773-2.063 4.501-3.744 9.08-5.375 13.75-2.214 6.276-4.8 12.226-7.625 18.25l-1.313 3.938c-2.365 4.292-5.273 5.044-9.687 7.062-9.483 6.702-13.875 12.754-17.625 23.688-2.95 8.564-4.654 13.06-13.375 16.312l-2.875 1.313c-5.362 1.18-10.157-.644-15.25-2.375-3.306-1.078-6.41-1.666-9.875-1.938l-1 2-9-3c1.573-3.147 4.227-3.2 7.5-4.25 6.227-2.151 11.195-4.771 16.5-8.75l3.188-2.313c7.595-7.258 11.362-16.76 15.699-26.164 1.57-3.36 3.204-6.591 4.988-9.836 3.467-7.647 5.79-15.366 4.125-23.687-7.446-7.94-19.724-17.575-30-21 1.03-3.435 2.234-6.453 3.887-9.648 2.15-4.43 3.687-8.786 5.175-13.477 5.454-17.156 5.454-17.156 15.836-20.102l4.141-1.187 4.336-1.211 4.313-1.234c5.427-1.544 10.776-3.034 16.312-4.141v-3Z"/><path fill="#193256" d="M352 97c5 7.21 5 7.21 5 11l-10-2-1 5 2.563.5c10.928 4.769 14.912 17.28 18 27.836a154.708 154.708 0 0 0 3.312 9.578c4.128 11.237 5.78 20.905 5.813 32.836l.02 3.88c-.071 3.604-.071 3.604-.708 9.37l-4 2-2.676-3.7c-7.09-9.748-14.262-19.32-22.324-28.3l-2.223-2.477c-11.755-12.417-27.196-20.749-42.84-27.21l-3.392-1.432A246.544 246.544 0 0 0 279 127c-9.914-4.132-19.069-9.046-28-15l-3.688-.938L244 110v-3c3.78-1.89 6.455-2.577 10.563-3.313 6.097-1.145 11.975-2.663 17.937-4.374 18.833-4.996 34.037-1.38 51.258 7.101 2.691 1.317 5.46 2.473 8.242 3.586l1-4c3.492-2.613 3.492-2.613 7.875-5.313l4.367-2.738C349 96 349 96 352 97Z"/><path fill="#181b36" d="M287 193c9.066 15.11 11.923 32.737 4 49-5.3 9-5.3 9-7 9l.027-2.945c-.333-15.492-3.805-37.329-16.964-47.305l-2.528-1.953c-2.429-1.722-4.982-3.265-7.535-4.797-1.938-2.188-1.938-2.188-4-5l-3.125-4.125c-1.674-2.256-3.317-4.537-4.875-6.875-7.854-2.732-15.826 1.624-22.09 6.313-13.112 12.109-19.11 29.005-18.972 46.437l.013 3.27c.012 2.66.03 5.32.049 7.98.38-1.572.38-1.572.77-3.176l1.042-4.137 1.02-4.113C208 227 208 227 211 224v12l3.25-.813C218 235 218 235 220 236.875l2 3.125c2.327 3.005 4.661 6.004 7 9l2.25 3.188c4.062 4.154 8.533 6.266 13.75 8.812l1-1-1.938-2.375c-4.47-5.69-3.758-11.348-1.687-18.125C244 236 244 236 246 235c-2.973-3.473-2.973-3.473-8.375-4.438-7.688-2.135-7.688-2.135-10.625-5.562-.813-3.25-.813-3.25-1-6 7.127-2.431 13.227-3.408 20.75-3.375l5.422-.023c12.076.996 19.109 9.328 24.266 19.585C282 246.999 282 246.999 282 254c-2.922 1.863-2.922 1.863-6.75 3.313l-3.797 1.488C268 260 268 260 264 261c-4.276-5.894-4.276-5.894-3-11 2.563-2.25 2.563-2.25 5-4-7.056-5.696-7.056-5.696-15-10l3 5c-.248 4.056-1.155 6.31-3 10-.667 5.084-.667 5.084 0 10 2.879 1.794 2.879 1.794 6 2-4.448 4.448-13.55 2.098-19.188.875-6.744-2.628-12.057-6.559-17.812-10.875v-2h-2l2 14h17v3c-15.266 3.036-15.266 3.036-21.5-.688L212 263l-2.258-2.605C192.313 240.004 191.428 219.84 196 194h2l.125-3c2.146-9.809 12.562-19.558 21.875-23 26.73-5.765 50.21 4.97 67 25Z"/><path fill="#080918" d="M288 365c1.975 2.436 3.945 4.878 5.863 7.36 8.767 10.834 21 15.909 34.7 17.14l4.437.5c1.914 5.742-2.41 11.82-5 17l-.313 4.5c-1.533 12.265-6.2 20.062-16.812 26.438l-3.469 2.09a259.274 259.274 0 0 1-9.031 4.972c-5.025 2.67-9.468 5.886-13.965 9.363C282 456 282 456 278 457c-13.2-29.41-13.2-29.41-13.313-46.75l-.087-4.348c-.08-13.563.99-28.299 12.462-37.152l2.66-2.078c3.802-2.791 3.802-2.791 8.278-1.672Z"/><path fill="#193256" d="M126 288c3.813.477 7.625.954 11.438 1.438 2.872.354 5.747.69 8.625 1 8.376.93 16.29 2.5 24.414 4.757 3.896 1.028 3.896 1.028 9.523.805 2.273 2.379 2.273 2.379 4.375 5.563 11.124 15.751 30.216 24.896 49.625 24.43 1.128-.02 2.255-.038 3.417-.057l3.583-.061c8.647-.087 16.419.239 24.82 2.45 10.612 2.255 21.644.603 32.18-1.325 2.333-.338 4.666-.674 7-1-3.387 8.469-8.264 10.037-17 12-6.257.461-12.071.45-18.2-.98-5.525-1.174-10.925-1.476-16.55-1.645l-3.246-.106c-3.001-.094-6.003-.182-9.004-.269l-3.574-.2c-8.58-.339-16.904 1.263-25.32 2.777-17.358 3.052-31.096.483-46.106-8.577l-2.93-1.719c-3.41-2.016-6.773-4.083-10.07-6.281l1.39 2.344c2.641 4.482 5.25 8.924 7.548 13.594 1.861 3.666 3.888 7.075 6.062 10.562 4.726 7.611 8.32 14.921 11 23.5-25.169-5.034-37.585-38.789-45.063-60l-1.314-3.695A873.468 873.468 0 0 1 126 288Z"/><path fill="#234a9b" d="M192 16c4.685 1.562 6.825 5.288 10 9 2.556 2.652 5.119 5.297 7.688 7.938C217.398 41.002 223.89 49.653 230 59l2.832 4.309C235 67 235 67 235 70c-3.686.825-7.27 1.453-11 2l-5.5 1c-7.15 1.198-14.356 1.846-21.57 2.535-3.71.214-3.71.214-5.93 1.465-2.49.237-4.985.42-7.48.578-17.965 1.236-35.066 2.94-52.52 7.422a1262.16 1262.16 0 0 1-9 2c2.084-20.02 29.693-35.464 44.363-46.54C181.055 29.985 181.055 29.985 192 16Z"/><path fill="#193256" d="M284 172c5 2 5 2 9.25 4.438 4.574 2.681 4.574 2.681 9.25 3.875 15.054 5.645 18.58 19.072 22.484 33.222.657 3.266.657 3.266 2.016 4.465 1.107 22.382-1.74 38.846-20.922 52.117-4.862 3.437-9.06 7.325-13.387 11.399-9.607 8.868-16.84 13.637-30.316 10.359-20.058-6.997-20.058-6.997-24.375-9.875v-4l5.3-.297c2.338-.15 4.675-.301 7.012-.453l3.479-.188c9.362-.636 16.771-2.843 25.209-7.062v-2l-4 2c1-3 1-3 4.75-5.625 4.829-3.835 6.368-6.946 9.25-12.375a488.32 488.32 0 0 1 5.563-7.438c11.863-16.1 11.992-31.547 4.25-49.687L297 191v-2l-3-1c-2.227-2.582-2.227-2.582-4.625-5.813l-2.414-3.207C285 176 285 176 284 172Z"/><path fill="#587fc3" d="M137 84c-5.107 5.107-12.042 6.608-19 8v2l-4.125 2.125c-10.455 6.166-11.906 12.777-12.125 24.125-.387 11.53-2.576 21.117-8.25 31.188-5.3 9.672-7.59 20.489-9.75 31.23C82.173 189.673 79.664 196.34 77 203c-2.16 21.407 10.403 39.72 25.188 54.063 4.95 5.113 8.269 10.802 11.812 16.937 3.905 6.509 6.319 6.76 13.688 7.813 7.204 1.029 14.044 2.956 21.03 4.96 9.84 2.82 19.817 5.067 29.79 7.36C182 295 182 295 184 296l1 4c9.413 13.483 23.492 16.49 39 16l4.375-1.25c4.973.343 4.96 1.893 7.125 6.188A174 174 0 0 1 238 327c-24.097 1.506-43.968-10.291-58-29v-2l-2.383.645c-4.89.48-8.747-.706-13.492-1.957-7.925-1.99-15.621-3.424-23.738-4.286C137 290 137 290 132.062 288.875c-4.452-.959-8.521-1.02-13.062-.875l.07 3.43.055 4.445.07 4.43C119 304 119 304 117 306c-6.263.606-7.352.648-12-4-2.265-4.53-1.263-10.663-.313-15.5.439-4.908-1.233-8.837-2.687-13.5l1-4-3-1-2-5a117.875 117.875 0 0 0-5-5.375c-14.382-15.399-28.836-37.345-23.023-59.316a389.494 389.494 0 0 1 2.671-7.477c1.346-3.816 2.316-7.58 3.227-11.52 2.998-12.392 7.326-24.39 12.438-36.062 3.13-7.162 4.67-13.378 5.062-21.188C94.31 106.97 102.465 98.252 115 91l5-2 2-4v2l2.773-.91 3.602-1.153 3.586-1.16C135 83 135 83 137 84Z"/><path fill="#193256" d="m242 147 4.125 1.125c10.638 4.092 19.593 7.938 26.875 16.875 3.105 1.665 6.235 3.093 9.488 4.445C285 171 285 171 286 176a196.855 196.855 0 0 0 5 8c-3.72-1.86-5.736-3.484-8.688-6.313-4.479-4.087-8.825-7.018-14.312-9.687l-2.613-1.296c-7.715-3.553-14.137-4.422-22.575-4.204l-3.365-.008c-6.713.08-12.143.984-18.447 3.508l-3.66 1.371C202.39 174.663 190.255 189.727 187 206h-2l-1 10c-7.875-2.75-7.875-2.75-9-5-.53-15.313 1.812-30.953 8-45l1.223-2.895c4.45-9.771 9.738-12.465 19.656-15.21 12.686-3.636 25.07-4.489 38.121-.895Z"/><path fill="#234a9b" d="M352 97c5 7.21 5 7.21 5 11l-10-2-1 5 2.563.5c10.928 4.769 14.912 17.28 18 27.836a154.708 154.708 0 0 0 3.312 9.578c4.128 11.237 5.78 20.905 5.813 32.836l.02 3.88c-.071 3.604-.071 3.604-.708 9.37l-4 2c-3.386-8.436-6.305-16.797-8.5-25.625-3.393-13.346-8.543-28.418-18.5-38.375v-2l-4-2-4.438-3.188C325.96 119.044 316.202 114.448 305 111l-4.063-1.625c-16.356-5.712-39.182-6.253-54.937 1.625l-3-3c4.526-2.716 6.647-3.525 11.625-4.375 6.086-1.11 11.93-2.602 17.875-4.313 18.833-4.995 34.037-1.379 51.258 7.102 2.691 1.317 5.46 2.473 8.242 3.586l1-4c3.492-2.613 3.492-2.613 7.875-5.313l4.367-2.738C349 96 349 96 352 97Z"/><path fill="#4a6aa7" d="M416 286h2c-1.455 5.686-3.506 11.064-5.64 16.52a583.74 583.74 0 0 0-2.657 6.93c-6.565 17.444-6.565 17.444-15.703 21.55-9.483 6.702-13.875 12.754-17.625 23.688-2.95 8.564-4.654 13.06-13.375 16.312l-2.875 1.313c-5.362 1.18-10.157-.644-15.25-2.375-3.306-1.078-6.41-1.666-9.875-1.938l-1 2-9-3c1.573-3.147 4.227-3.2 7.5-4.25 6.227-2.151 11.195-4.771 16.5-8.75l3.188-2.313c7.589-7.252 11.347-16.742 15.69-26.132A244.798 244.798 0 0 1 373 315.187c1.714-3.588 2.69-6.257 3-10.187 10.264.898 10.264.898 15.063 1.563L395 307l5.188.688c5.294-.132 5.294-.132 7.75-5.375.68-1.754 1.36-3.507 2.062-5.313l3-5 1-4h2v-2Z"/><path fill="#181b36" d="M438 325c8.144 4.845 23 14.051 23 24-5 3-5 3-8.375 3.938-3.99 1.169-7.035 2.983-10.625 5.062-6.95 3.226-13.112 3.47-20.625 3.563-15.806.248-20.462 3.288-29.457 15.843-3.554 4.806-6.773 7.507-11.918 10.594l-4-1 2.313-2.438c5.803-7.692 7.441-18.538 9.994-27.767 4.617-16.216 4.617-16.216 9.9-17.69l3.606.082c11.294-.221 16.697-4.697 24.625-12.625 4.112-2.507 6.832-2.238 11.562-1.562Z"/><path fill="#819ecf" d="M265 120c4.577 2.22 8.993 3.998 13.875 5.438 4.494 1.37 8.578 3.046 12.816 5.054 4.178 1.904 8.43 3.595 12.684 5.32 8.092 3.4 15.403 7.212 22.625 12.188l3.04 2.082C343.87 160 353.945 172.39 364 186l2.598 3.285c5.418 6.948 6.487 10.373 4.402 18.715-10.076-2.519-17.695-12.522-24.759-19.744-4.565-4.657-9.305-8.996-14.241-13.256a1381.532 1381.532 0 0 1-5.5-5.188c-8.003-7.372-16.694-13.999-25.79-19.972C298 148 298 148 295 145c-4.686-3.154-9.426-6.217-14.168-9.285C277 133 277 133 277 131c-1.985-.71-3.99-1.367-6-2a198.55 198.55 0 0 1-6-3v2c-5-2-5-2-9.375-4.813-8.937-5.45-19.174-8.637-29.625-9.187 14.875-7.437 26.294-3.53 39 6Z"/><path fill="#2d62bf" d="m100 268 4 1-2 1 .91 2.598c2.089 6.28 3.58 10.817 2.09 17.402-.216 5.89-.206 9.485 2 15 5.831.89 5.831.89 11-1 .047-2.666.038-5.334 0-8-.111-7.889-.111-7.889 1-9 3-.041 6-.042 9 0l-2 1 3 5a148.15 148.15 0 0 1 2.34 6.734l1.283 3.93 1.315 4.086c5.808 18.008 12.564 33.88 25.062 48.25l2.875 3.75c5.44 5.658 11.4 9.705 19.125 11.25 9.145-3.596 14.909-8.348 21.602-15.488 4.187-4.385 7.407-3.973 13.398-3.512 7.714 3.857 7.714 3.857 9 9h2l2.125 2.688c4.012 4.621 8.098 7.671 14.125 9.062 4.868-.974 8.34-3.198 12.54-5.79 13.803-8.43 13.803-8.43 18.21-6.96l2 2-2.527.883c-7.224 2.63-13.13 5.696-19.473 10.117-6.094 3.208-11.362 4.288-18 1.938-7.178-4.636-11.59-9.71-16-16.938-4.76-2.38-6.735-2.827-12-2-3.7 2.646-6.833 5.746-10 9l-5 5-2.688 2.813c-5.324 3.516-10.215 3.614-16.05.925-8.144-4.941-15.292-11.244-21.45-18.488-4.605-5.322-8.92-8.086-15.625-10-12.018-3.832-17.575-12.845-23.792-23.293-3.167-5.233-6.757-10.043-10.395-14.957-3.626-6.043-4.125-10.298-4.133-17.203l-.004-3.469.012-3.578-.012-3.625c.01-8.872.01-8.872 1.137-11.125Z"/><path fill="#234a9b" d="M401 220c-2 7.358-6.405 13.45-10.371 19.883-5.72 11.135-6.52 23.085-7.817 35.367l-.537 4.895c-.432 3.95-.857 7.902-1.275 11.855-4.769 0-5.296-.75-8.75-3.813C360.57 278.007 360.57 278.007 347 271c1.03-3.435 2.234-6.453 3.887-9.648 2.15-4.43 3.687-8.786 5.175-13.477 5.46-17.172 5.46-17.172 15.942-20.102l4.182-1.187 4.377-1.211a8646.81 8646.81 0 0 0 8.566-2.414l3.846-1.069C399.39 220 399.39 220 401 220Z"/><path fill="#4a6aa7" d="m352 106 3.07.121c4.422 1.326 4.945 3.827 6.805 7.942l2.063 4.406L366 123c5.905 12.476 12.453 24.29 21.281 34.969 3.773 6.981 3.281 12.803 3.094 20.594.013 12.71 1.35 21.707 8.625 32.437 3.149 5.554 3.149 5.554 2 9-3.402 1.43-3.402 1.43-7.938 2.875l-4.902 1.566a653.256 653.256 0 0 1-19.66 5.579c-3.317.81-3.317.81-5.5 1.98l5-15 1 2c4.907-.857 9.55-2.168 14.313-3.625C388 214 388 214 392 214c-1.61-3.222-4.346-2.85-7.75-3.5-4.434-.853-8.017-1.807-12.25-3.5-.805-9.195-.805-9.195 2-12 1.768-19.31-.875-35.102-7.92-53.05-1.075-2.937-1.912-5.86-2.693-8.887-2.698-9.85-7.659-18.172-17.387-22.063 0-6.2 0-6.2 6-5Z"/><path fill="#181b36" d="M274.563 183.625c4.289 3.573 4.289 3.573 9.437 5.375 10.734 13.418 14.894 31.523 9.375 48.125-2.46 5.048-5.047 9.364-8.375 13.875h-1l.027-2.945c-.333-15.492-3.805-37.329-16.964-47.305l-2.528-1.953c-2.429-1.722-4.982-3.265-7.535-4.797-1.938-2.188-1.938-2.188-4-5l-3.125-4.125c-1.674-2.256-3.317-4.537-4.875-6.875-7.852-2.731-15.789 1.628-22.078 6.273-3.07 2.866-5.276 5.741-7.61 9.227l-2.261 3.344c-1.743 2.681-3.406 5.414-5.051 8.156h-2c2.223-7.335 4.828-12.433 9.75-18.25 2.461-2.416 2.461-2.416 2.25-4.75l-4.125 1.5C209 185 209 185 203 185c2.495-4.99 4.08-5.2 9.188-7.125l3.917-1.508c19.046-6.686 42.501-5.42 58.458 7.258Z"/><path fill="#193256" d="m366 389-.75 2.688c-.48 8.291 2.945 16.061 6.75 23.312l1.945 3.734c3.49 6.43 6.81 12.378 11.868 17.704 6.564 6.941 8.248 13.14 9.062 22.562.497 5.59.864 9.585 4.25 14.125 3.291 4.436 3.713 6.477 2.875 11.875-3.705 3.705-4.917 3.789-10 3-4.285-4.285-6.23-8.529-8.25-14.188-5.89-15.652-13.269-30.146-21.877-44.453-5.05-8.43-8.942-16.52-11.123-26.171l-1.016-4.395C349 395 349 395 349 391l2.809-.184 3.628-.253 3.622-.247c3.42-.367 3.478-1.316 6.941-1.316Z"/><path fill="#193256" d="M144 150c7.096 7.096 5.713 20.8 6 30l.371 5.14c.64 12.72.64 12.72-4.309 18.298-11.893 6.02-11.893 6.02-18.062 7.562l-1-5-4-2c-7.734-12.128-6.314-23.464 0-36 10.267-18 10.267-18 21-18Z"/><path fill="#193256" d="m246.75 215.625 5.422-.023c12.076.996 19.109 9.328 24.266 19.585C282 246.999 282 246.999 282 254c-2.922 1.863-2.922 1.863-6.75 3.313l-3.797 1.488C268 260 268 260 264 261c-4.276-5.894-4.276-5.894-3-11 2.563-2.25 2.563-2.25 5-4-7.056-5.696-7.056-5.696-15-10l3 5c-.248 4.056-1.155 6.31-3 10-.08 3.666-.087 7.334 0 11-5.182-1.296-7.62-4.24-10-9-.39-6.426.282-11.146 3-17l2-1c-2.973-3.473-2.973-3.473-8.375-4.438-7.688-2.135-7.688-2.135-10.625-5.562-.813-3.25-.813-3.25-1-6 7.127-2.431 13.227-3.408 20.75-3.375Z"/><path fill="#080918" d="M307 225c3.282 1.641 3.746 4.693 5 8v3h2c2.25 2.188 2.25 2.188 4 5-1.612 4.031-3.115 6.848-5.5 10.375-2.72 4.19-4.305 7.751-5.5 12.625-4.317 12.13-18.663 23.331-30 29-12.702.858-28.329-3.886-39-11v-4l2.611-.044c3.943-.075 7.884-.172 11.827-.269l4.107-.068c7.392-.198 13.513-.803 20.455-3.619l3.5-1c7.703-4.402 12.417-11.518 14.5-20a191.621 191.621 0 0 1 3.313-5.438c4.305-7.089 6.496-14.607 8.687-22.562Z"/><path fill="#819ecf" d="M298 160c14.825 2.965 26.872 13.339 38 23l2.777 2.316C344 189.713 344 189.713 344 192h2c.437 11.157-1.23 21.432-3.313 32.375l-.935 5.078C334.17 270.377 334.17 270.377 324 275c-1.992.377-3.992.72-6 1l1.32-2.5c13.73-26.627 21.16-51.462 5.075-78.953-2.228-3.456-2.228-3.456-4.52-5.984-1.875-2.563-1.875-2.563-3-6.688-3.516-9.142-10.77-15.589-18.875-20.875v-1Z"/><path fill="#2e4976" d="m278 141 2.191 2.16 2.434 2.403 2.29 2.253C290 153.14 290 153.14 290 156c-7.234-1.996-13.159-5.247-19.578-9.008C250.592 135.448 222.59 124.587 200 134c-1.99.384-3.989.742-6 1 20.275-37.653 62.284-16.272 84 6Z"/><path fill="#234a9b" d="M401 327c-2.136 6.763-4.62 13.394-7.941 19.668-2.303 4.846-3.712 9.595-5.122 14.77-5.265 19.204-5.265 19.204-10.937 26.562v1c-13.412 1.8-13.412 1.8-19.125-4.25-6.643-6.354-15.472-10.249-23.875-13.75l1-4c4.39.52 8.661 1.132 13 2v2c7.645 1.04 7.645 1.04 15-1l3.563-1.063c5.611-3.162 6.493-8.29 8.578-14.136C378.908 344.536 388.073 327 401 327Z"/><path fill="#4a6aa7" d="m199 129-2.063 2.375L195 134l1 2-4.313 2.813c-5.397 3.739-9.769 8.143-14.242 12.93C175 154 175 154 171 155c-2.817 2.159-2.817 2.159-5.625 4.813l-2.914 2.644c-2.716 2.551-2.716 2.551-4.461 6.543-4.375.75-4.375.75-9-1-2.101-5.196-3.014-10.501-4-16l-1-2c2.313-4.125 2.313-4.125 5-8h2l2-4c9.941-8.077 17.36-6.932 29-3 5.056 1.264 5.04.508 8.5-3 4.056-4.111 4.056-4.111 8.5-3Z"/><path fill="#2d62bf" d="M313 323c-3 5-3 5-5.688 7.188-3.471 4.222-2.841 7.517-2.312 12.812l3 5v3c-17.811 7.633-40.06 2.903-56-7-9-6.885-9-6.885-9-9 3.479-.054 6.958-.093 10.438-.125l5.87-.07c5.22.179 9.638.98 14.692 2.195 10.501.88 21.903.872 29-8l2-3-2-1c7.75-3.125 7.75-3.125 10-2Z"/><path fill="#2e4976" d="m100 268 4 1-2 1 .91 2.598c2.089 6.28 3.58 10.817 2.09 17.402-.216 5.89-.206 9.485 2 15 5.831.89 5.831.89 11-1-.05-4.15-.199-8.29-.355-12.438L118 288l4-1-.188 3.063c.21 4.412 1.275 6.974 3.188 10.937 2.843 6.03 4.567 11.51 6 18a391.308 391.308 0 0 0 3.977 10.766C136 333 136 333 136 338l-5 1c-3.125-3.75-3.125-3.75-6-8l-3-3 2 5-1 3c-2.337-3.331-4.67-6.665-7-10l-2.223-3.172A1200.66 1200.66 0 0 1 107 313l-2.094-3.063c-4.693-7.078-6.03-11.832-6.039-20.14l-.004-3.469.012-3.578-.012-3.625c.01-8.872.01-8.872 1.137-11.125Z"/><path fill="#2e4976" d="M149 199c3.882 1.941 3.362 8.727 4 12.813 2.002 11.991 5.406 23.007 9.785 34.335 3.302 8.59 3.302 8.59 2.215 11.852l-1.582-1.984c-4.215-5.226-8.533-10.286-13.106-15.204-4.092-4.425-7.797-8.905-11.312-13.812l-2.84-3.754-3.097-4.121-2.965-3.93C128 212 128 212 129 210l10-4c3.524-2.154 6.692-4.519 10-7Z"/><path fill="#587fc3" d="M245 177c2.608 2.974 4.792 5.76 7 9 3.916 5.61 3.916 5.61 9 10 2 5 2 5 1 8l-3.14-3.21-4.11-4.165-4.078-4.148c-5.528-5.234-9.15-6.356-16.672-5.477-6.434 4.118-10.717 8.724-15 15l-2.25 3.188c-2.02 3.061-2.02 3.061-3.75 7.812l-2 4.938c-2.618 6.626-4.31 12.336-5.125 19.437l-.508 4.336L205 245c-7.437-11.155-1.282-32.076 4-43 6.431-11.833 20.192-30.748 36-25Z"/><path fill="#4a6aa7" d="m240.938 143.813 3.822.79c6.067 1.296 11.612 2.71 17.24 5.397l3.75 1c3.25 1 3.25 1 6.25 4l3.625 1.313c5.047 1.946 8.945 4.592 13.375 7.687l4.438 2.75c6.603 4.704 12.899 9.923 16.562 17.25l-5-2-5.25-1.75c-5.53-1.998-9.9-4.907-14.75-8.25a393.542 393.542 0 0 0-9.984-5.094C272 165 272 165 269.598 162.074 260.903 151.784 246.71 148.795 234 147l-2-1c-12.506-.839-22.502.077-34 5h-2c7.683-15.365 31.589-10.136 44.938-7.188Z"/><path fill="#080918" d="M210 148c-1.893 1.92-3.79 3.836-5.688 5.75l-3.199 3.234C198 160 198 160 195.243 162.125c-3.223 2.694-4.437 6.139-6.243 9.875h-2c-1.217 7.91-1.955 16.18 0 24 .04 3.333.044 6.667 0 10h-2l-1 10c-7.875-2.75-7.875-2.75-9-5-.53-15.313 1.812-30.953 8-45l1.223-2.895C188.359 154.021 199.13 144.377 210 148Z"/><path fill="#234a9b" d="M240 147c13.237 1.47 24.495 7.971 33 18 3.098 1.776 6.196 3.076 9.488 4.445C285 171 285 171 286 176a196.855 196.855 0 0 0 5 8c-3.72-1.86-5.736-3.484-8.688-6.313-4.49-4.092-8.813-7.01-14.312-9.687l-2.792-1.525c-10.634-5.304-20.383-5.178-32.083-4.85l-5.59.082c-4.513.07-9.023.168-13.535.293 8.739-10.697 18.905-10.164 32-10v-2a168.693 168.693 0 0 0-6-2v-1Z"/><path fill="#2d62bf" d="m275 171 1.813 3.188c2.72 4.74 6.17 10.303 11.187 12.812v4h2c2.266 4.532 1.927 6.178 1 11l-2-4c-14.93-22.735-34.843-30.905-62-30-12.067 1.63-20.844 8.74-27 19-.722 2.317-1.4 4.648-2 7l-1-4-5 4-1-2c18.676-27.296 54.492-43.13 84-21Z"/><path fill="#080918" d="M211 224v12l3.25-.813C218 235 218 235 220 236.875l2 3.125c2.327 3.005 4.661 6.004 7 9l2.25 3.188c7.26 7.424 15.696 9.63 25.75 10.812-4.448 4.448-13.55 2.098-19.188.875-6.744-2.628-12.057-6.559-17.812-10.875v-2h-2l1 13c-10.669-10.346-14.148-16.181-13-31 3.207-9 3.207-9 5-9Z"/><path fill="#193256" d="M247 188c.25 4.625.25 4.625 0 9h2l1 5-3.875-.176-5.125-.137-5.063-.175c-11.83 1.17-16.203 9.345-21.875 18.675-1.33 3.524-1.555 6.08-1.062 9.813l4 3v2l-6 1-1-11-3 8c-1.217-4.866-.306-6.93 1.313-11.625l1.363-4.04C211 214 211 214 213 212l1.125-2.938C219.965 196.411 231.54 180.27 247 188Z"/><path fill="#587fc3" d="M283 80c6.215 2.472 12.238 5.07 18.188 8.125 4.828 2.465 9.64 4.226 14.812 5.875 6.31 2.44 10.595 4.804 15 10v2l2 1-1 3c-5.086-1.017-8.877-2.683-13.563-4.875-5.486-2.496-10.683-4.655-16.562-6L297 98v-2l-3-.125c-5.14-1.125-7.91-3.615-12-6.875a204.72 204.72 0 0 0-7-4c3.111-6.222 3.111-6.222 8-5Z"/><path fill="#080918" d="M251 176c2.6 4.8 2.6 4.8 1 8l4 2 3 4c3.316-.115 3.316-.115 7-1 4.375-.75 4.375-.75 8-1l1 3c4.006 1.721 4.006 1.721 8 3l-1 5c-6 0-6 0-8-3-4.04-.345-8.028-.312-12.082-.3-5.019-.896-6.106-2.563-8.918-6.7l-3.188-4.188c-1.65-2.237-3.27-4.499-4.812-6.812-7.852-2.731-15.789 1.628-22.078 6.273-3.07 2.866-5.276 5.741-7.61 9.227l-2.261 3.344c-1.743 2.681-3.406 5.414-5.051 8.156h-2c2.223-7.335 4.828-12.433 9.75-18.25 2.461-2.416 2.461-2.416 2.25-4.75l-4.125 1.5C209 185 209 185 203 185c2.483-4.966 4.056-5.227 9.125-7.188l3.883-1.542c10.502-3.34 24.56-4.095 34.992-.27Z"/><path fill="#2e4976" d="M261.75 327.5c12.186 2.835 24.062 1.73 36.25-.5 2.333-.338 4.666-.674 7-1-3.387 8.469-8.264 10.037-17 12-12.483 1.339-27.771-.386-39-6-6.233-1.837-12.539-3.266-19-4v-1c21.78-1.894 21.78-1.894 31.75.5Z"/><path fill="#2d62bf" d="M416 286h2c-1.455 5.686-3.506 11.064-5.64 16.52a583.74 583.74 0 0 0-2.657 6.93c-6.565 17.444-6.565 17.444-15.703 21.55-5.888 4.16-9.986 8.04-14 14h-2c.398-5.919 2.026-9.063 5.688-13.688l2.574-3.324C392.665 321 392.665 321 397 321l1-5 3-3 1-4-4.125.125c-5.816-.124-11.245-.833-16.969-1.785-2.84-.601-2.84-.601-4.906.66v-3c10.264.898 10.264.898 15.063 1.563L395 307l5.188.688c5.294-.132 5.294-.132 7.75-5.375.68-1.754 1.36-3.507 2.062-5.313l3-5 1-4h2v-2Z"/><path fill="#234a9b" d="M220.5 354.25C224 357 224 357 225 361h2l2.125 2.688c4.012 4.621 8.098 7.671 14.125 9.062 4.868-.974 8.34-3.198 12.54-5.79 13.803-8.43 13.803-8.43 18.21-6.96l2 2-2.527.883c-7.224 2.63-13.13 5.696-19.473 10.117-6.094 3.208-11.362 4.288-18 1.938-7.178-4.636-11.59-9.71-16-16.938-4.76-2.38-6.735-2.827-12-2-3.7 2.646-6.833 5.746-10 9l-5 5-2.75 2.875c-4.42 2.89-7.2 2.12-12.25 1.125v-2a755.34 755.34 0 0 1 9-4c6.357-3.43 10.953-7.716 15.898-12.89 5.15-5.17 11.476-3.923 17.602-.86Z"/><path fill="#193256" d="M231.625 166.688c19.688.19 38.306 5.22 50.375 21.312-5.393-1.348-8.629-4.445-12.93-7.871-16.332-11.325-43.08-7.19-60.07-.129l-5 3-2-1c9.083-9.66 16.271-14.41 29.625-15.313Z"/><path fill="#2d62bf" d="m414.625 351.875 4.102-.008C422 352 422 352 423 353c4.19.238 8.368.423 12.563.563l3.6.13c2.945.107 5.89.207 8.837.307-7.275 7.275-17.098 7.578-26.813 7.625-13.078-.02-13.078-.02-23.187 7.375l-3 3c.572-7.247 3.902-13.902 9-19 3.674-1.225 6.753-1.132 10.625-1.125Z"/><path fill="#2e4976" d="M304 208c6.952 10.428 2.606 24.482-2 35-2.186 3.781-4.585 7.355-7 11l-.875 3.5c-3.352 10.428-11.243 15.97-21.125 19.5-4.809.962-8.925 1.1-13.813 1.063l-4.644-.028L251 278v-1l5.813-.25c8.21-.619 14.816-3.064 22.187-6.75v-2l-4 2c1-3 1-3 4.75-5.625 4.829-3.835 6.368-6.946 9.25-12.375a488.32 488.32 0 0 1 5.563-7.438c9.04-12.317 9.993-21.52 9.437-36.562Z"/><path fill="#2d62bf" d="m119 287 3 1c.346 3.332.679 6.665 1 10l3 4c1.706 4.027 2.967 7.844 3.875 12.125 1.253 5.43 3.104 10.446 5.102 15.64C136 333 136 333 136 338c-5 1-5 1-8.125-2.438-5.54-8.791-6.26-16.016-6.469-26.222-.414-4.42-1.592-7.334-3.406-11.34-.444-9.556-.444-9.556 1-11Z"/><path fill="#2d62bf" d="M186 305c4.211 1.053 6.59 2.56 10.188 4.938 9.928 6.18 20.761 8.076 32.187 4.812 4.973.343 4.96 1.893 7.125 6.188A174 174 0 0 1 238 327c-18.885 1.18-40.624-6.309-52-22Z"/><path fill="#080918" d="M307 225c3.282 1.641 3.746 4.693 5 8v3l2 1c-3 5-3 5-5 5l-.875 2.625c-1.215 3.645-2.971 6.212-5.125 9.375l-2 5c-1.91 2.387-1.91 2.387-4.063 4.688-3.753 3.717-3.753 3.717-4.937 6.312a227.66 227.66 0 0 1-9 3c2.178-3.435 4.38-6.419 7.125-9.438 3.04-3.766 3.598-5.98 4.875-10.562a198.906 198.906 0 0 1 3.313-5.438c4.305-7.089 6.496-14.607 8.687-22.562Z"/><path fill="#2d62bf" d="m315 264 1 2-2 3 5-1c-1.821 3.642-3.392 5.702-6.125 8.625a123.352 123.352 0 0 0-8.75 10.563C299.179 293.483 292.798 298.05 285 300c-3-4-3-4-3-6 2.12-1.402 4.242-2.8 6.375-4.184 8.115-5.615 14.716-12.908 21.277-20.214A151.13 151.13 0 0 1 315 264Z"/><path fill="#181b36" d="M323 227h1c.38 3.328.703 6.663 1 10l.5 4.75c-1.246 13.082-8.3 21.826-19.5 28.25h-2l2-6 1-3.938c3.502-8.864 9.304-16.467 15-24.062.432-2.987.779-5.99 1-9Z"/><path fill="#181b36" d="M211 224v12h3c1.563 4.125 1.563 4.125 3 9l1.082 2.875c1.024 3.486 1.117 6.375 1.043 10l-.055 3.492L219 264c-10.669-10.346-14.148-16.181-13-31 3.207-9 3.207-9 5-9Z"/><path fill="#587fc3" d="M119 281c11.795 1.077 22.657 3.668 34 7 8.453 2.245 16.985 4.173 25.508 6.133C182 295 182 295 184 296l1 4 3 5c-4.022-2.011-5.483-3.404-8-7v-2l-2.383.645c-4.89.48-8.747-.706-13.492-1.957-7.922-1.99-15.62-3.41-23.73-4.297-17.72-2.04-17.72-2.04-21.395-9.391Z"/><path fill="#181b36" d="M284 172c5 2 5 2 9.25 4.438 4.615 2.677 4.615 2.677 9.438 4.062 4.447 1.547 7.04 3.144 10.312 6.5v3l-3.438.188L306 191l-1 5c-3-2-3-2-3-4l-4 1-1-4-3-1c-2.227-2.582-2.227-2.582-4.625-5.813l-2.414-3.207C285 176 285 176 284 172Z"/><path fill="#2e4976" d="m237 162-4 3 2.754.078c9.54.43 18.12 2.14 27.246 4.922-5.42 2.71-8.196 1.408-14.063.125C230.501 166.39 216.337 167.077 203 182c-2.546 4.243-3.804 7.308-5 12l-1-4-5 4-1-2c11.21-16.383 24.871-30.414 46-30Z"/><path fill="#2d62bf" d="M251 236c7.273 1.455 10.852 5.852 16 11l-3.063 1.688L261 251c.646 4.882.646 4.882 3 8v3c-3 1.188-3 1.188-6 2v-10l-2.313 2.5C253 259 253 259 250 259c-.299-5.776.455-8.91 3-14-.257-3.279-.962-5.886-2-9Z"/><path fill="#181b36" d="M266 221c4.829 3.83 8.963 9.162 11 15l-1 4c-3.127-1.62-6.252-3.247-9.375-4.875l-5.273-2.742C257 230 257 230 255 228v-6c3.855-1.928 6.78-1.541 11-1Z"/><path fill="#080918" d="M282 248c0 6 0 6-2.922 7.863l-3.828 1.45-3.797 1.488C268 260 268 260 264 261c-4.276-5.894-4.276-5.894-3-11 6.465-4.849 13.304-3.12 21-2Z"/><path fill="#2d62bf" d="m100 268 4 1-2 1 .91 2.598c2.089 6.28 3.58 10.817 2.09 17.402-.216 5.89-.206 9.485 2 15 4.562.905 4.562.905 9 1v2c-2 1-2 1-8 1-4-4-4-4-4-6l-3 1c-2.248-7.198-2.266-13.92-2.188-21.375l.002-3.598c.045-8.746.045-8.746 1.186-11.027Z"/><path fill="#181b36" d="M259 195c2.437-.108 4.874-.186 7.313-.25l4.113-.14C274 195 274 195 277 199c3.102.81 3.102.81 6 1 .155 5.191-.393 9.854-1.438 14.938l-.808 4.027L280 222h-1a260.664 260.664 0 0 1-1.688-6.063c-2.738-9.071-7.475-13.762-15.312-18.937l-3-2Z"/><path fill="#819ecf" d="M257 115a222.072 222.072 0 0 1 6 8l2 2c-6.024 0-7.704-.555-12.75-3.313-8.594-4.473-16.558-6.905-26.25-7.687 11.26-5.63 20.346-5.392 31 1Z"/><path fill="#587fc3" d="m314 263 1 2h-2l-2 4c-22.507 27-22.507 27-32 27 1.129-5.644 1.763-6.083 6.125-9.375 3.321-2.53 6.276-5.031 9.215-8.012 3.811-3.762 7.786-6.88 12.098-10.05l4.308-3.184L314 263Z"/><path fill="#181b36" d="m245 216-2 4a150.086 150.086 0 0 0-1 6l-1 4c-5.621.882-8.663-.47-13-4-2-3-2-3-2-7 6.47-2.552 12.08-3.335 19-3Z"/><path fill="#819ecf" d="M245 177c1 1 1 1 1 7l-2.71.008c-8.936.286-14.004 1.818-21.29 6.992-3 2-3 2-7 3 5.467-10.934 17.327-20.104 30-17Z"/><path fill="#193256" d="M202 226h1l1 16 2-3 .438 5.313c1.206 7.459 5.01 12.659 10.562 17.687h3v3h17v3c-15.317 3.046-15.317 3.046-21.625-.875L212 263l-4-4.063C205 255 205 255 205 249l-1.488-2.82c-1.986-4.178-1.806-7.456-1.7-12.055l.083-4.617L202 226Z"/><path fill="#587fc3" d="m371 204 1 3c2.835.567 5.672 1.124 8.516 1.648l3.734.727c1.243.235 2.485.47 3.766.71C391 211 391 211 392 214a906.406 906.406 0 0 1-7.563 2.5l-4.253 1.406c-3.95 1.033-7.13 1.307-11.184 1.094-.154-5.778-.17-9.575 2-15Z"/><path fill="#2e4976" d="M278 221c6.356 3.178 6.498 16.536 6.938 22.688.277 4.699.277 4.699.062 8.312l-3 1c-.22-.81-.438-1.622-.664-2.457-1.704-5.948-3.559-11.288-6.649-16.668C272 229 272 229 273 226c2.438-2.75 2.438-2.75 5-5Z"/><path fill="#4a6aa7" d="M226 237h7l.375 3.188c.531 4.1.531 4.1 2.625 8.812l4 1a168.863 168.863 0 0 1 6 9l2 3c-11.408-2.852-16.988-10.975-22-21v-4Z"/><path fill="#587fc3" d="M240 144c-3.575 3.575-9.426 1.962-14.25 1.813-10.285-.192-18.325.789-27.75 5.187h-2c7.573-15.145 30.899-10.345 44-7Z"/><path fill="#181b36" d="M294 255c0 8.333-6.77 15.416-13.781 19.7-6.96 2.819-13.61 3.42-21.031 3.363l-4.645-.028L251 278v-1l5.813-.25c10.692-.828 19.01-3.846 26.062-12.125C291.172 255 291.172 255 294 255Z"/><path fill="#2d62bf" d="M174 153c-2 4-2 4-4.75 7.5-5.483 7.592-9.045 15.728-12.25 24.5h-1l-.313-5.313c-.097-5.714-.097-5.714-3.687-8.687v-2h6l2-5c10.228-11 10.228-11 14-11Z"/><path fill="#193256" d="M352 97c5 7.21 5 7.21 5 11l-3.063-1c-6.397-1.625-9.545-2.044-14.937 2h-6c0-4.943 3.833-5.787 7.813-8.25l4.394-2.766C349 96 349 96 352 97Z"/><path fill="#2d62bf" d="M218 251c2 0 2 0 4.125 2.188 5.213 5.099 11.208 8.034 17.875 10.812v1c-3.29.161-6.582.278-9.875.375-1.833.07-3.666.14-5.555.21C220 265 220 265 218.375 262.25c-.436-3.782-.506-7.447-.375-11.25Z"/><path fill="#2d62bf" d="M270 168c5.406 3.244 6.056 4.717 9 10 3.921 5.17 3.921 5.17 9 9v4h2c2.266 4.532 1.927 6.178 1 11l-2-4c-3.388-5.05-6.839-9.862-11.188-14.125-4.47-4.57-7.812-9.382-7.812-15.875Z"/><path fill="#181b36" d="M396 475h5c1.65 3.3 1.223 6.383 1 10-3.696 3.696-4.94 3.621-10 3l-4-4c2-4 2-4 6-7h2v-2Z"/><path fill="#234a9b" d="M416 286h2c-1.194 4.667-2.7 9.213-4.313 13.75l-1.175 3.36C411 306 411 306 406 309c-1.996 2.46-1.996 2.46-3.688 5.188C399 319 399 319 397 319c2-4 2-4 4-6l1-4-4.125.125c-5.816-.124-11.245-.833-16.969-1.785-2.84-.601-2.84-.601-4.906.66v-3c10.264.898 10.264.898 15.063 1.563L395 307l5.188.688c5.294-.132 5.294-.132 7.75-5.375.68-1.754 1.36-3.507 2.062-5.313l3-5 1-4h2v-2Z"/><path fill="#4a6aa7" d="m315 264 1 2-2 3 5-1c-3.11 6.22-7.172 8.67-13 12l-4 4-4 2-4 3-3-1 4.313-3.75c5.12-4.595 9.746-9.532 14.34-14.648A151.13 151.13 0 0 1 315 264Z"/><path fill="#234a9b" d="m247 234-3 3c-1.742 4.936-2.453 9.806-3 15-5.43-3.258-7.868-5.307-8.188-11.813L233 237h-6v-1l4.75.125c5.88-.14 9.266-2.125 15.25-2.125Z"/><path fill="#2e4976" d="M316 192c5.283 5.283 6.79 13.031 8.688 20.125.778 4.508.778 4.508 2.312 5.875.33 8.694.254 17.38-1 26h-1c-.105-.901-.21-1.803-.32-2.731-.49-4.153-.991-8.305-1.493-12.457l-.501-4.294c-1.354-11.108-3.442-21.79-6.686-32.518Z"/><path fill="#2d62bf" d="M122 328c3 1 3 1 5.813 5.563 2.86 5.25 2.86 5.25 9.187 4.437l2-3c4 5.5 4 5.5 4 10-8.127-.5-13.211-2.211-19-8-.755-2.98-1.431-5.98-2-9Z"/><path fill="#2d62bf" d="M365 135c3.366 4.488 4.952 8.788 7 14l2.188 4.313c2.708 5.51 2.906 10.165 2.69 16.175-.047 1.428-.096 2.856-.146 4.326l-.17 4.499-.158 4.556c-.13 3.71-.264 7.42-.404 11.131h-1l.098-5.176c.017-16.144-2.462-29.418-8.164-44.512C365 139 365 139 365 135Z"/><path fill="#4a6aa7" d="M186 305c4.211 1.053 6.59 2.56 10.188 4.938 8.079 5.055 15.407 6.166 24.812 7.062-7.253 3.627-12.712 4.416-20.5 1.063C186 308.193 186 308.193 186 305Z"/><path fill="#587fc3" d="M115.125 276.25 117 279l3 3a347.688 347.688 0 0 1 4 5l-5 1c-.907 3.514-.907 3.514-1 7l-1-4h-2c-2-4-2-4-2-7h-2a140.266 140.266 0 0 1-2-7l-1-2c5-1 5-1 7.125 1.25Z"/><path fill="#2d62bf" d="M289 184c8.353 2.088 11.173 10.489 14 18 2.305 8.34 2.206 16.42 2 25h-1v-5.25c-1.016-13.447-7.596-26.644-15-37.75Z"/><path fill="#234a9b" d="m274 360 2 2-2.527.883C266.266 365.508 260.286 368.51 254 373c-4 2-4 2-8 1 4.184-4.184 7.776-6.257 13-9l3.148-1.688 3.227-1.687 3.023-1.586C271 359 271 359 274 360Z"/><path fill="#080918" d="m206 241 1 2h2c5.248 6.317 10.167 12.466 10 21-13.193-12.793-13.193-12.793-13-23Z"/><path fill="#4a6aa7" d="M389 184h1v4.5c.717 8.374 5.06 15.24 9 22.5a696.66 696.66 0 0 1 3 6l-3 1c-1.938-2.387-1.938-2.387-4-5.688-2.247-3.553-4.474-6.944-7-10.312-.288-6.127-.074-11.96 1-18Z"/><path fill="#2d62bf" d="m217 169-2.957 2.668-3.856 3.52-3.832 3.48c-4.695 4.663-6.749 9.03-8.355 15.332l-1-4-5 4-1-2c17.643-25.786 17.643-25.786 26-23Z"/><path fill="#193256" d="M284 172c5 2 5 2 9.25 4.438 4.521 2.439 8.87 4.013 13.75 5.562v1c-2.104.168-4.208.334-6.313.5l-3.55.281c-5.742.4-6.579.148-9.825-4.656l-1.886-2.742C284 174 284 174 284 172Z"/><path fill="#2d62bf" d="M195 198c1.088 4.351.638 6.598 0 11-.118 3.79-.175 7.583-.188 11.375l-.042 5.96c.298 7.338 1.118 13.69 5.167 19.915A356.077 356.077 0 0 1 206 256h-2v-2l-4-1c-6.641-10.12-7.328-19.712-7.25-31.438l-.023-3.525c.015-6.93.665-13.255 2.273-20.037Z"/><path fill="#4a6aa7" d="M241 185v1l-3.938.563C224.945 190.002 217.484 201.79 213 213l-3 4c2.095-16.33 14.482-32.59 31-32Z"/><path fill="#4a6aa7" d="M156 358c6.063 0 5.654.513 9 5 2.704 2.025 2.704 2.025 5.625 3.75l2.914 1.797A73.037 73.037 0 0 0 178 371v3l3 1c-10.207-.953-19.091-9.066-25-17Z"/><path fill="#819ecf" d="M137 84c-5.107 5.107-12.042 6.608-19 8v2a126.27 126.27 0 0 1-7 3l-1-3 4.875-2.25c5.348-2.235 5.348-2.235 7.125-6.75v2l2.773-.91 3.602-1.153 3.586-1.16C135 83 135 83 137 84Z"/><path fill="#2d62bf" d="M272 101c-4.895 4.056-9.8 5.072-15.879 6.29-3.575.813-6.838 2.068-10.121 3.71l-3-3c4.663-2.798 7.237-3.646 12.438-4.563 3.75-.67 7.25-1.327 10.847-2.59C269 100 269 100 272 101Z"/><path fill="#193256" d="m234 328 9 2 4.688 1c3.546.822 6.917 1.694 10.312 3v1c-18.488.936-18.488.936-24-5v-2Z"/><path fill="#2e4976" d="M119 302c4.024 4.024 3.313 6.107 3.188 11.688l-.083 4.699L122 322l-1.813-2.313c-2.225-2.827-2.225-2.827-5.187-5.687v-3l2-1a160.214 160.214 0 0 0 2-8Z"/><path fill="#234a9b" d="M176 213c5.75.75 5.75.75 8 3-.125 4-.125 4-1 8l-4 2c-2.786-4.179-2.615-8.063-3-13Z"/><path fill="#234a9b" d="M261 196c10 6 10 6 10 13l-2 2c-4.686-4.18-8-8.506-8-15Z"/><path fill="#234a9b" d="M230 327c12.428-.282 22.471 2.353 34 7v1c-10.5-.75-10.5-.75-15-3-6.233-1.837-12.539-3.266-19-4v-1Z"/><path fill="#4a6aa7" d="M104 280c2.633 3.95 1.735 5.37 1 10-.216 5.89-.206 9.485 2 15 4.562.905 4.562.905 9 1v2c-2 1-2 1-8 1-4-4-4-4-4-6l-3 1v-2h2l-.035-2.781c-.048-6.5.005-12.78 1.035-19.219Z"/><path fill="#2e4976" d="M279 268c0 2 0 2-3.563 4.5-8.547 4.816-15.82 4.74-25.437 4.5 1-3 1-3 3.313-3.688 3.287-.278 6.394-.265 9.687-.187 6.456.064 10.96-5.125 16-5.125Z"/><path fill="#181b36" d="M294 255c0 7.28-2.777 9.08-8 14l-5-2c9.429-12 9.429-12 13-12Z"/><path fill="#2d62bf" d="M226 237h7c1.375 9.625 1.375 9.625-2 13-5-8.5-5-8.5-5-13Z"/></svg>