<svg xmlns="http://www.w3.org/2000/svg" width="512" height="512"><path fill="#020403" d="M0 0h512v512H0V0Z"/><path fill="#020403" d="M0 0h209l4 17 2 4 .875 4.125c2.783 12.06 8.861 23.347 14.375 34.375 1.726 3.452 3.23 6.954 4.75 10.5 2.173 4.483 4.434 8.723 7 13 0 5.964-2.602 11.085-4.824 16.512-1.2 3.56-1.606 6.693-1.926 10.425-.87 7.043-4.123 8.632-10.25 12.063-4.61 5.212-6.205 10.334-8 17l-2 5c-3.708 22.535-1.562 43.438 15 60-3.794 7.588-10.381 12.367-17 17.438-27.31 21.237-38.369 55.51-43.188 88.562l-.506 3.45c-2.33 16.824-2.438 33.6-2.369 50.55a8191.931 8191.931 0 0 0 .063 22l-2.95-.298-3.85-.343-3.826-.36c-3.565-.323-3.565-.323-6.561 2.251-9.015 18.65-6.665 41.31-4.063 61.25l.475 3.718c1.045 7.443 2.677 14.496 4.847 21.691.714 2.378 1.337 4.783 1.92 7.196 1.712 6.615 4.041 13.032 6.262 19.49C162 508.689 162 508.689 162 512H0V0Z"/><path fill="#fefefd" d="M209 0h151c0 34.228-18.437 62.718-37.348 89.793-3.803 6.033-2.59 8.678-.214 15.082 1.458 4.783 1.955 8.796 2.375 13.75.746 7.21 2.12 10.105 7.187 15.375 9.643 19.756 4.961 48.731-6 67-2.5 3.334-5.027 6.11-8 9-2.637 5.274-1.057 6.527 1.96 11.227 2.897 3.938 6.188 7.434 9.524 11 32.948 36.324 33.146 86.94 28.954 133.093-.405 5.256-.515 10.412-.438 15.68l2.375-2.938C364.365 373.408 364.35 374 371 374c3.616 2.32 5.573 3.912 7.152 7.938C378 385 378 385 374.766 387.055l-4.516 1.82c-7.67 3.3-13.658 7.047-20.25 12.125l-3 1-2 4-3 5c-1.534 10.277 4.135 16.851 11.563 23.125 7.803 5.88 16.317 10.63 25.375 14.25C383 451 383 451 382.877 455.48c-1.203 7.558-2.519 15.027-4.333 22.462-1.122 4.726-1.783 9.276-2.204 14.111-1.045 7.695-2.563 14.44-8.341 19.947-12.964 5.177-28.404 3.89-42.18 3.693-4.562-.049-9.12-.011-13.68.027-10.764.09-21.52.045-32.282-.09-11.093-.137-22.171-.072-33.263.097-9.534.14-19.064.166-28.6.1-5.69-.04-11.373-.04-17.062.064-37.367.601-37.367.601-43.884-10.238-2.623-6.24-3.888-12.453-4.645-19.16-.545-4.713-1.72-9.217-2.904-13.805-.502-2.563-1.002-5.125-1.5-7.688l-.992-3.785c-5.414-22.641-9.108-53.985 3.117-74.84 4.165-3.44 6.746-2.443 11.875-1.375l5 1-1-5c-.094-2.964-.13-5.93-.133-8.895l-.004-5.337.012-5.58-.012-5.452c.012-16.297.92-32.123 3.387-48.236l.668-4.38c1.548-9.722 3.638-18.881 7.082-28.12l1.75-5.938c4.373-12.907 11.6-24.61 20.25-35.062l2.074-2.57c5.243-6.183 11.237-10.957 17.653-15.883 3.78-2.94 7.238-5.829 10.273-9.547-1.815-4.073-1.815-4.073-4.813-7.125-14.262-17.339-14.351-42.399-7.875-63.063 3.874-8.75 7.715-17.319 17.688-19.812v-3.25c0-7.674 2.579-14.711 5.813-21.625C242.626 83.718 238.82 78.368 235 72c-2.95-4.916-4.874-9.686-7-15l-2.375-4.625c-2.848-5.831-5.084-11.74-7.293-17.836-1.313-3.673-1.313-3.673-3.332-7.539l-.938-4.25c-.917-4.685-.917-4.685-2.625-8.688C210 10 210 10 209 0Z"/><path fill="#5e6462" d="M360 0h152c.564 53.093.564 53.093.684 75.324.083 15.357.18 30.713.372 46.07.14 11.182.23 22.365.261 33.55.018 5.922.061 11.842.163 17.763.095 5.576.125 11.148.104 16.725.005 3.019.08 6.037.158 9.055-.158 14.765-.158 14.765-8.466 19.604A146.793 146.793 0 0 1 498 221l-3.33 1.744C492 224 492 224 490 223l2.5-4.813c3.201-7.086 3.945-13.48 1.063-20.875-11.314-14.624-26.384-19.092-43.442-24.042C446 172 446 172 445 171c-2.07-.158-4.147-.251-6.223-.316l-3.818-.127-4.022-.12-4.033-.13c-3.301-.107-6.602-.209-9.904-.307-.68-7.945-1.095-15.868-.922-23.844l.068-3.88c1.171-4.492 3-5.234 7.166-7.026 2.892-.183 5.791-.257 8.688-.25 3.194-.477 6.382-.999 9.563-1.563l4.835-.73c16.845-2.259 16.845-2.259 29.602-12.707.362-13.574-8.951-20.534-19-28l-2-1v37l-14.688.125-4.545.055c-6.19.025-12.125-.107-18.232-1.168-7.796-1.354-15.514-1.342-23.41-1.325l-4.355-.048c-15.097-.007-30.276.205-38.77 14.361-.963 11.074 1.43 18.45 10 26l3.188 2.938c6.693 5.377 14.096 9.347 21.812 13.062-3.89 2.593-7.942 3.957-12.313 5.625C358.753 193.567 339.83 201.095 335 218c-1.404 11.61.574 19.574 9 28v2l4 2 4.5 3.688c14.893 12.057 32.58 18.195 50.5 24.312 2.128.764 4.253 1.533 6.375 2.313 2.482.905 4.968 1.8 7.477 2.628 29.426 9.894 29.426 9.894 38.148 21.059.584 4.377.819 8.176.762 12.547l.01 3.66c0 2.544-.016 5.09-.045 7.634-.04 3.91-.02 7.816.005 11.725-.007 2.473-.018 4.946-.033 7.418l.021 3.558c-.057 3.277-.057 3.277-.72 8.458-5 2-5 2-9 2v-14h-20v19h3c-1 4-1 4-6.074 5.527-2.201.485-4.406.954-6.613 1.41-10.477 2.33-20.44 5.062-30.301 9.368-2.298.994-4.65 1.862-7.012 2.695-1.744-2.617-3.382-5.303-5-8-3.231-2.555-3.231-2.555-9-2-2.73 2.313-2.73 2.313-5 5l-3 2c-.101-7.712.297-15.257 1-22.938 3.815-46.006 1.205-93.01-31.563-128.324-10.406-11.69-10.406-11.69-11.437-18.738 3-3 3-3 5-3l2-4 2.813-3.938C336 183.294 340.878 153.335 331 134l-3.043-3.207c-3.743-4.8-4.036-8.217-4.644-14.23-.802-7.583-.802-7.583-2.958-14.848-2.766-7.58.412-11.26 5.02-17.403C343.895 58.769 356.839 31.608 360 0Z"/><path fill="#fefefd" d="M0 0h72v512H0V0Z"/><path fill="#020403" d="M0 0h35v512H0V0Z"/><path fill="#484f4e" d="M338 240c4.875 4.625 4.875 4.625 6 8l4 2 4.5 3.688c14.893 12.057 32.58 18.195 50.5 24.312 2.128.764 4.253 1.533 6.375 2.313 2.482.905 4.968 1.8 7.477 2.628 29.426 9.894 29.426 9.894 38.148 21.059.584 4.377.819 8.176.762 12.547l.01 3.66c0 2.544-.016 5.09-.045 7.634-.04 3.91-.02 7.816.005 11.725-.007 2.473-.018 4.946-.033 7.418l.021 3.558c-.057 3.277-.057 3.277-.72 8.458-5 2-5 2-9 2v-14h-20v19h3c-1 4-1 4-6.074 5.527-2.201.485-4.406.954-6.613 1.41-10.477 2.33-20.44 5.062-30.301 9.368-2.298.994-4.65 1.862-7.012 2.695-1.744-2.617-3.382-5.303-5-8-3.231-2.555-3.231-2.555-9-2-2.73 2.313-2.73 2.313-5 5l-3 2c-.101-7.712.297-15.257 1-22.938 3.162-38.133 3.253-80.98-19.438-113.562C337 243 337 243 338 240Z"/><path fill="#020403" d="M455 0h57v188c-4.637-1.546-8.356-3.128-12.625-5.375-14.23-7.174-28.59-9.871-44.375-11.625v-33l10.25-.313c13.891-.57 30.422-1.935 38.75-14.687 3.608-7.216 3.09-15.4.063-22.625-10.893-15.56-25.27-24.83-41.633-33.906-7.41-4.13-7.41-4.13-7.77-10.387 0-2.614.017-5.227.047-7.84l.013-4.161c.017-4.402.054-8.804.092-13.206.016-2.978.03-5.956.042-8.934.03-7.314.089-14.627.146-21.941Z"/><path fill="#484f4e" d="m383 451 3.89 1.207c22.984 6.885 44.156 8.108 68.11 7.793v52h-87c1.345-6.053 2.666-11.103 4.75-16.813 4.873-14.283 7.835-29.3 10.25-44.187Z"/><path fill="#5e6462" d="m321.95-.586 4.755.059 4.983.152 5.017.082c4.1.07 8.197.17 12.295.293-2.978 15.306-6.582 29.761-13 44a629.574 629.574 0 0 0-2.25 7.063c-2.29 7.021-5.283 13.427-8.695 19.968a210.247 210.247 0 0 0-3.985 8.125l-1.82 3.906-1.61 3.536L316 89c-4-1-4-1-7-3.75-3.965-3.222-5.822-3.794-10.563-5.063-5.273-2.096-5.273-2.096-5.937-6.507.497-4.676 1.43-9.102 2.5-13.68.3-1.611.598-3.223.906-4.883C299.25 38.327 304.802 21.944 311 6l1.16-3.39c2.785-3.95 5.097-3.298 9.79-3.196Z"/><path fill="#484f4e" d="m422 375-2.875 3.25c-5.759 6.91-6.334 13.143-4.438 21.938 5.015 10.746 12.57 17.396 22.313 23.812l3 4-4 1.75c-8.64 3.657-8.64 3.657-16 9.25-10.77-.295-20.138-3.982-30-8l-5.5-1.875c-7.893-3.05-16.046-6.553-20.5-14.125-1.067-8.534.98-12.38 7.313-17.875 11.846-7.897 24.754-13.55 37.878-18.95 2.312-.967 4.596-2 6.872-3.05C419 374 419 374 422 375Z"/><path fill="#fefefd" d="M417 284c14.071 2.955 27.764 9.764 38 20 .41 4.206.584 8.144.566 12.352l.02 3.667c.006 2.557.003 5.114-.01 7.671-.013 3.927.02 7.852.059 11.779 0 2.482-.001 4.963-.006 7.445l.04 3.576c-.038 3.298-.038 3.298-.669 8.51-5 2-5 2-9 2v-14h-20v19h3c-1 4-1 4-4 5-2.333.04-4.667.044-7 0-.84-5.097-1.122-9.975-1.114-15.138v-4.852l.016-5.194.005-5.35c.005-5.635.018-11.27.03-16.904.006-3.822.01-7.644.014-11.466.011-9.366.028-18.73.049-28.096Z"/><path fill="#707674" d="M387 4c1.715 5.145-2.27 9.421-4.813 13.875-6.104 10.832-10.958 19.932-6.75 32.375C382.14 60.058 391.933 65.189 402 71c2.815 1.683 5.628 3.37 8.438 5.063L417 80V61h2l-.352 4.348c-1.355 12.238-1.355 12.238 5.29 21.277L429 89l1 3c5.346.435 10.631.127 16 0v20c-16.882.64-16.882.64-21-5-4.763.953-8.532 2.388-13 4.25-8.571 3.4-17.113 5.555-26.102 7.547-4.385 1.077-8.402 2.397-12.586 4.078C368 125 368 125 366 124a166.74 166.74 0 0 1 19.813-13c7.468-4.302 14.608-8.981 15.5-18.25-.789-9.458-9.861-15.637-16.813-21.188C373.58 62.725 365.947 53.712 368 39c2.281-8.31 6.066-14.951 11-22a303.316 303.316 0 0 0 3.25-5.938C385 6 385 6 387 4Z"/><path fill="#fefefd" d="M417 460h38v52h-38v-52Z"/><path fill="#707674" d="M426 138v17l19-1 1-15h9v32h9c10.758 1.597 21.207 4.22 31.242 8.438 3.723 1.64 3.723 1.64 7.64 2.625 7.002 2.419 8.74 4.263 10.411 11.664.722 7.965 1.346 16.32-4.25 22.582-3.64 2.05-7.07 3.423-11.043 4.691l-3.336 1.727C492 224 492 224 490 223l2.5-4.813c3.201-7.086 3.945-13.48 1.063-20.875-11.314-14.624-26.384-19.092-43.442-24.042C446 172 446 172 445 171c-2.07-.158-4.147-.251-6.223-.316l-3.818-.127-4.022-.12-4.033-.13c-3.301-.107-6.602-.209-9.904-.307a1515.81 1515.81 0 0 1-.25-15.438l-.102-4.455-.039-4.228-.063-3.92L417 139c4-1 4-1 9-1Z"/><path fill="#707674" d="M511 338h1c1.094 14.615 1.094 14.615-2.813 19.563L505 360l-4.875 3.375c-5.983 3.724-12.287 6.632-18.684 9.57-15.89 5.947-15.89 5.947-26.324 16.778l-.242 4.34-.32 4.347L455 402l5 2c26.294 11.441 26.294 11.441 34 23 .774 8.808.659 13.563-6 20-10.426 6.525-10.426 6.525-15 5l3-1c3.816-9.54 2.401-16.402-3-25-7.579-8.221-17.238-12.76-27-18-12.801-7.27-12.801-7.27-13.438-12.813C433.62 385.08 441.772 381.33 450 377c4.934-2.19 9.94-4.123 15-6 27.699-10.722 27.699-10.722 46-33Z"/><path fill="#fefefd" d="M417 200c13.402 3.35 31.388 17.9 38 30-.031 4.996-.031 4.996-.5 10.438.022 8.15.022 8.15 5.66 13.43 5.582 2.01 11.117 3.575 16.84 5.132 10.323 4.36 19.379 9.863 28 17l3.813 2.5c4.516 4.96 3.964 9.533 3.625 15.875l-.096 3.387A436.446 436.446 0 0 1 512 306c-2.064-3.096-3.537-6.198-5.125-9.563-8.34-16.68-21.443-27.96-37.875-36.437l-3.883-2.094C455.98 253.114 446.901 249.83 437 247c-2.92-.887-5.836-1.783-8.75-2.688l-3.922-1.199C421 242 421 242 417 240c-.454-3.899-.454-3.899-.39-8.945l.038-5.45.102-5.73.055-5.754c.047-4.707.113-9.414.195-14.121Z"/><path fill="#484f4e" d="M261 0h40c-1 4-1 4-3.188 9.563C292.836 22.387 288.757 35.517 286 49l-1 4.813c-.599 3.106-1.135 6.226-1.543 9.363l-.644 4.449-.543 4.227L281 75c-3.613.46-3.613.46-7 0-.952-4.91-1.197-9.693-1.375-14.688C271.832 44.177 270.044 26.11 264 11a560.151 560.151 0 0 1-2-8l-1-3Z"/><path fill="#484f4e" d="m410.25 194.438 3.078 1.87A286.26 286.26 0 0 1 419 200h-2v39c-6.282-1.047-10.381-3.087-16-6l-3.438-1.438c-20.538-9.007-20.538-9.007-22.062-20.25 1.853-15.985 21.892-24.804 34.75-16.875Z"/><path fill="#fefefd" d="M418 64c2.44 1.555 4.878 3.111 7.316 4.668 2.791 1.767 5.592 3.516 8.399 5.258l5.035 3.136 4.797 2.973c12.362 8.23 12.362 8.23 12.137 18.082l-.069 5.274-.178 5.484-.095 5.555A995.16 995.16 0 0 1 455 128c-5.02.03-10.042.047-15.063.063l-4.302.025-4.17.01-3.825.016c-3.617-.113-7.07-.533-10.64-1.114a479.38 479.38 0 0 1-.313-8.813l-.175-4.957C417 109 417 109 422 106c4 1 4 1 7 5 4.107.706 4.107.706 8.688.75L446 112V92l-7.688.313c-6.7.272-8.94-.264-13.312-5.313l-3.785-2.23c-4.497-3.874-3.944-6.296-3.652-12.082l.19-4.926L418 64Z"/><path fill="#fefefd" d="M418 0c3.51-.34 3.51-.34 8.191-.293l4.546.023 5.825.083L455 0v61c-4.965-2.483-7.932-5.398-11-10l-2.875-.938C437.25 48.745 434.867 46.734 433 43c-.123-2.31-.176-4.624-.188-6.938l-.042-3.777C433 29 433 29 435 26a161.39 161.39 0 0 1 11 0V7l-7.625 1.5c-5.022.988-9.214 1.5-14.375 1.5l1.063 3.688c1.506 6.93-.929 11.398-3.856 17.64-1.28 2.834-2.248 5.716-3.207 8.672h-1a8469.23 8469.23 0 0 1-.063-18.313l-.025-5.271-.01-5.03-.016-4.649C417 3 417 3 418 0Z"/><path fill="#fefefd" d="M426 138v17l19-1 1-15h9v31h-38l-.25-15.438-.11-4.876-.03-3.807-.064-3.92L417 139c4-1 4-1 9-1Z"/><path fill="#fefefd" d="M381 393c2.115 11.705 3.178 23.09 3 35-8.046-1.61-15.75-5.777-20-13-1.126-9.01 1.236-12.78 8.125-18.313C377.442 393 377.442 393 381 393Z"/><path fill="#707674" d="M451 250c19.305 3.861 38.886 13.488 54 26l3.813 2.5c4.516 4.96 3.964 9.533 3.625 15.875l-.096 3.387A436.446 436.446 0 0 1 512 306c-2.064-3.096-3.537-6.198-5.125-9.563-10.879-21.757-29.471-32.5-50.672-42.773C453 252 453 252 451 250Z"/><path fill="#020403" d="M43 475h20v20H43v-20Z"/><path fill="#020403" d="M43 390h20v20H43v-20Z"/><path fill="#020403" d="M43 347h20v20H43v-20Z"/><path fill="#020403" d="M426 305h20v20h-20v-20Z"/><path fill="#020403" d="M43 262h20v20H43v-20Z"/><path fill="#020403" d="M43 177h20v20H43v-20Z"/><path fill="#020403" d="M43 135h20v20H43v-20Z"/><path fill="#020403" d="M43 92h20v20H43V92Z"/><path fill="#020403" d="M43 220h20v19H43v-19Z"/><path fill="#484f4e" d="M417 139v31c-9.064-3.626-15.232-9.69-16.688-19.75C401.793 141.1 408.325 139 417 139Z"/><path fill="#020403" d="M426 476h19v19h-19v-19Z"/><path fill="#020403" d="M44 433h19v19H44v-19Z"/><path fill="#020403" d="M44 306h19v19H44v-19Z"/><path fill="#020403" d="M44 50h19v19H44V50Z"/><path fill="#fefefd" d="m417 408 7 6 4.5 3.5c3.939 3.063 7.74 6.22 11.5 9.5-3.87 3.87-7.766 4.861-12.871 6.621-3.589 1.356-3.589 1.356-7.129 5.379h-3v-31Z"/><path fill="#020403" d="M44 8h19v18H44V8Z"/><path fill="#020403" d="M427 221h18v18h-18v-18Z"/><path fill="#020403" d="M431 93h14v18c-16.625.5-16.625.5-20-4 0-3 0-3 2.438-5.313 3.16-2.81 3.16-2.81 3.562-8.687Z"/><path fill="#020403" d="M427 140h18v14h-18v-14Z"/><path fill="#020403" d="M443 7h3v19h-17c0-5.621 2.442-6.814 6.438-10.625 4.296-3.79 4.296-3.79 7.562-8.375Z"/><path fill="#707674" d="m446 134 1 4c3.542.333 3.542.333 7 0v1h-8l.035 3.246c.01 1.383.018 2.766.027 4.191l.036 4.184C446 154 446 154 445 155c-3.187.073-6.375.084-9.563.063l-5.316-.028L426 155l-1-18c15.15-3.787 15.15-3.787 21-3Zm-19 6v14h18v-14h-18Z"/><path fill="#858887" d="M447 221c-.034 6.356-.577 12.655-1 19h-20v-20l9.375-.625 5.273-.352C445 219 445 219 447 221Zm-20 0v18h18v-18h-18Z"/><path fill="#202221" d="M437 9c-3.537 4.36-6.12 7.072-11 10-2-4-2-4-2-9 4.394-.857 8.526-1.09 13-1Z"/></svg>